<svg xmlns="http://www.w3.org/2000/svg" xmlns:xlink="http://www.w3.org/1999/xlink" version="1.1" width="40" height="40" viewBox="4.8 -9.6 96.0 129.6">
<path d="M92 54c-0.328 0-0.656-0.080-0.96-0.252l-43.040-23.468-43.044 23.48c-0.964 0.532-2.184 0.172-2.712-0.796s-0.172-2.18 0.8-2.716l44-24c0.592-0.328 1.32-0.328 1.916 0l44 24c0.968 0.532 1.328 1.748 0.796 2.716-0.364 0.66-1.052 1.036-1.756 1.036z" fill="#ffffff"/>
	<path d="M92 70c-0.328 0-0.656-0.080-0.96-0.252l-43.040-23.468-43.044 23.48c-0.964 0.532-2.184 0.172-2.712-0.796s-0.172-2.18 0.8-2.716l44-24c0.592-0.328 1.32-0.328 1.916 0l44 24c0.968 0.532 1.328 1.748 0.796 2.716-0.364 0.66-1.052 1.036-1.756 1.036z" fill="#ffffff"/>
<text x="0.0" y="112.8" font-size="4.8" font-weight="bold" font-family="Helvetica Neue, Helvetica, Arial-Unicode, Arial, Sans-serif" fill="#484848">Created by iconsmind.com</text><text x="0.0" y="117.6" font-size="4.8" font-weight="bold" font-family="Helvetica Neue, Helvetica, Arial-Unicode, Arial, Sans-serif" fill="#484848">from the Noun Project</text></svg>